<?xml version="1.0" encoding="UTF-8" standalone="no"?>
<!DOCTYPE svg PUBLIC "-//W3C//DTD SVG 1.1//EN"
 "http://www.w3.org/Graphics/SVG/1.1/DTD/svg11.dtd">
<!-- Generated by graphviz version 2.43.0 (0)
 -->
<!-- Title: sourcetree Pages: 1 -->
<svg width="3319pt" height="260pt"
 viewBox="0.00 0.00 3318.50 260.00" xmlns="http://www.w3.org/2000/svg" xmlns:xlink="http://www.w3.org/1999/xlink">
<g id="graph0" class="graph" transform="scale(1 1) rotate(0) translate(4 256)">
<title>sourcetree</title>
<polygon fill="white" stroke="transparent" points="-4,4 -4,-256 3314.5,-256 3314.5,4 -4,4"/>
<!-- mulle&#45;scion -->
<g id="node1" class="node">
<title>mulle&#45;scion</title>
<polygon fill="yellow" stroke="black" points="2844.5,-252 2746.5,-252 2746.5,-216 2844.5,-216 2844.5,-252"/>
<text text-anchor="middle" x="2795.5" y="-230.3" font-family="Times,serif" font-size="14.00">mulle&#45;scion</text>
</g>
<!-- Foundation -->
<g id="node4" class="node">
<title>Foundation</title>
<g id="a_node4"><a xlink:href="https://github.com/MulleFoundation/Foundation" xlink:title="Foundation">
<polygon fill="lightgrey" stroke="black" points="2108,-180 2011,-180 2011,-144 2108,-144 2108,-180"/>
<text text-anchor="middle" x="2059.5" y="-158.3" font-family="Times,serif" font-size="14.00">Foundation</text>
</a>
</g>
</g>
<!-- mulle&#45;scion&#45;&gt;Foundation -->
<g id="edge25" class="edge">
<title>mulle&#45;scion&#45;&gt;Foundation</title>
<path fill="none" stroke="black" d="M2746.35,-228.33C2615.64,-215.89 2259.8,-182.05 2118.49,-168.61"/>
<polygon fill="black" stroke="black" points="2118.58,-165.1 2108.29,-167.64 2117.91,-172.07 2118.58,-165.1"/>
</g>
<!-- Foundation&#45;startup -->
<g id="node11" class="node">
<title>Foundation&#45;startup</title>
<g id="a_node11"><a xlink:href="https://github.com/MulleFoundation/Foundation-startup" xlink:title="Foundation&#45;startup">
<polygon fill="lightgrey" stroke="black" points="2715.5,-180 2561.5,-180 2561.5,-144 2715.5,-144 2715.5,-180"/>
<text text-anchor="middle" x="2638.5" y="-158.3" font-family="Times,serif" font-size="14.00">Foundation&#45;startup</text>
</a>
</g>
</g>
<!-- mulle&#45;scion&#45;&gt;Foundation&#45;startup -->
<g id="edge26" class="edge">
<title>mulle&#45;scion&#45;&gt;Foundation&#45;startup</title>
<path fill="none" stroke="black" d="M2757.09,-215.88C2735.63,-206.31 2708.7,-194.3 2685.93,-184.15"/>
<polygon fill="black" stroke="black" points="2687.34,-180.94 2676.78,-180.07 2684.49,-187.34 2687.34,-180.94"/>
</g>
<!-- MulleHoedown -->
<g id="node25" class="node">
<title>MulleHoedown</title>
<g id="a_node25"><a xlink:href="https://github.com/MulleWeb/MulleHoedown" xlink:title="MulleHoedown">
<polygon fill="lightgrey" stroke="black" points="2857.5,-180 2733.5,-180 2733.5,-144 2857.5,-144 2857.5,-180"/>
<text text-anchor="middle" x="2795.5" y="-158.3" font-family="Times,serif" font-size="14.00">MulleHoedown</text>
</a>
</g>
</g>
<!-- mulle&#45;scion&#45;&gt;MulleHoedown -->
<g id="edge27" class="edge">
<title>mulle&#45;scion&#45;&gt;MulleHoedown</title>
<path fill="none" stroke="black" d="M2795.5,-215.7C2795.5,-207.98 2795.5,-198.71 2795.5,-190.11"/>
<polygon fill="black" stroke="black" points="2799,-190.1 2795.5,-180.1 2792,-190.1 2799,-190.1"/>
</g>
<!-- MulleScion -->
<g id="node31" class="node">
<title>MulleScion</title>
<g id="a_node31"><a xlink:href="https://github.com/MulleWeb/MulleScion" xlink:title="MulleScion">
<polygon fill="lightgrey" stroke="black" points="2971.5,-180 2875.5,-180 2875.5,-144 2971.5,-144 2971.5,-180"/>
<text text-anchor="middle" x="2923.5" y="-158.3" font-family="Times,serif" font-size="14.00">MulleScion</text>
</a>
</g>
</g>
<!-- mulle&#45;scion&#45;&gt;MulleScion -->
<g id="edge28" class="edge">
<title>mulle&#45;scion&#45;&gt;MulleScion</title>
<path fill="none" stroke="black" d="M2826.81,-215.88C2843.7,-206.64 2864.75,-195.13 2882.88,-185.21"/>
<polygon fill="black" stroke="black" points="2884.97,-188.06 2892.07,-180.19 2881.61,-181.92 2884.97,-188.06"/>
</g>
<!-- MulleWebServer -->
<g id="node32" class="node">
<title>MulleWebServer</title>
<g id="a_node32"><a xlink:href="https://github.com/MulleWeb/MulleWebServer" xlink:title="MulleWebServer">
<polygon fill="lightgrey" stroke="black" points="3125.5,-180 2989.5,-180 2989.5,-144 3125.5,-144 3125.5,-180"/>
<text text-anchor="middle" x="3057.5" y="-158.3" font-family="Times,serif" font-size="14.00">MulleWebServer</text>
</a>
</g>
</g>
<!-- mulle&#45;scion&#45;&gt;MulleWebServer -->
<g id="edge29" class="edge">
<title>mulle&#45;scion&#45;&gt;MulleWebServer</title>
<path fill="none" stroke="black" d="M2844.78,-219.83C2883.92,-209.38 2939.26,-194.59 2983.68,-182.72"/>
<polygon fill="black" stroke="black" points="2984.81,-186.04 2993.56,-180.08 2983,-179.28 2984.81,-186.04"/>
</g>
<!-- craftinfo/expat -->
<g id="node2" class="node">
<title>craftinfo/expat</title>
<polygon fill="lightgrey" stroke="black" points="1787.5,-36 1665.5,-36 1665.5,0 1787.5,0 1787.5,-36"/>
<text text-anchor="middle" x="1726.5" y="-14.3" font-family="Times,serif" font-size="14.00">craftinfo/expat</text>
</g>
<!-- expat -->
<g id="node3" class="node">
<title>expat</title>
<g id="a_node3"><a xlink:href="https://github.com/libexpat/libexpat" xlink:title="expat">
<polygon fill="lightgrey" stroke="black" points="1861.5,-36 1805.5,-36 1805.5,0 1861.5,0 1861.5,-36"/>
<text text-anchor="middle" x="1833.5" y="-14.3" font-family="Times,serif" font-size="14.00">expat</text>
</a>
</g>
</g>
<!-- MulleFoundation -->
<g id="node5" class="node">
<title>MulleFoundation</title>
<g id="a_node5"><a xlink:href="https://github.com/MulleFoundation/MulleFoundation" xlink:title="MulleFoundation">
<polygon fill="lightgrey" stroke="black" points="1038,-108 901,-108 901,-72 1038,-72 1038,-108"/>
<text text-anchor="middle" x="969.5" y="-86.3" font-family="Times,serif" font-size="14.00">MulleFoundation</text>
</a>
</g>
</g>
<!-- Foundation&#45;&gt;MulleFoundation -->
<g id="edge1" class="edge">
<title>Foundation&#45;&gt;MulleFoundation</title>
<path fill="none" stroke="black" d="M2010.9,-157.88C1839.27,-146.86 1260.51,-109.69 1048.33,-96.06"/>
<polygon fill="black" stroke="black" points="1048.4,-92.56 1038.2,-95.41 1047.96,-99.55 1048.4,-92.56"/>
</g>
<!-- mulle&#45;objc&#45;compat -->
<g id="node6" class="node">
<title>mulle&#45;objc&#45;compat</title>
<g id="a_node6"><a xlink:href="https://github.com/mulle-objc/mulle-objc-compat" xlink:title="mulle&#45;objc&#45;compat">
<polygon fill="lightgrey" stroke="black" points="1702,-108 1555,-108 1555,-72 1702,-72 1702,-108"/>
<text text-anchor="middle" x="1628.5" y="-86.3" font-family="Times,serif" font-size="14.00">mulle&#45;objc&#45;compat</text>
</a>
</g>
</g>
<!-- Foundation&#45;&gt;mulle&#45;objc&#45;compat -->
<g id="edge2" class="edge">
<title>Foundation&#45;&gt;mulle&#45;objc&#45;compat</title>
<path fill="none" stroke="black" d="M2010.81,-154.45C1945.21,-145.43 1824.6,-128.21 1712.36,-108.29"/>
<polygon fill="black" stroke="black" points="1712.68,-104.79 1702.22,-106.48 1711.45,-111.68 1712.68,-104.79"/>
</g>
<!-- MulleObjCExpatFoundation -->
<g id="node7" class="node">
<title>MulleObjCExpatFoundation</title>
<g id="a_node7"><a xlink:href="https://github.com/MulleFoundation/MulleObjCExpatFoundation" xlink:title="MulleObjCExpatFoundation">
<polygon fill="lightgrey" stroke="black" points="1935,-108 1720,-108 1720,-72 1935,-72 1935,-108"/>
<text text-anchor="middle" x="1827.5" y="-86.3" font-family="Times,serif" font-size="14.00">MulleObjCExpatFoundation</text>
</a>
</g>
</g>
<!-- Foundation&#45;&gt;MulleObjCExpatFoundation -->
<g id="edge3" class="edge">
<title>Foundation&#45;&gt;MulleObjCExpatFoundation</title>
<path fill="none" stroke="black" d="M2010.87,-146.33C1976.96,-136.09 1931.3,-122.32 1894.02,-111.07"/>
<polygon fill="black" stroke="black" points="1894.83,-107.66 1884.25,-108.12 1892.81,-114.36 1894.83,-107.66"/>
</g>
<!-- MulleObjCHTTPFoundation -->
<g id="node8" class="node">
<title>MulleObjCHTTPFoundation</title>
<g id="a_node8"><a xlink:href="https://github.com/MulleWeb/MulleObjCHTTPFoundation" xlink:title="MulleObjCHTTPFoundation">
<polygon fill="lightgrey" stroke="black" points="2166,-108 1953,-108 1953,-72 2166,-72 2166,-108"/>
<text text-anchor="middle" x="2059.5" y="-86.3" font-family="Times,serif" font-size="14.00">MulleObjCHTTPFoundation</text>
</a>
</g>
</g>
<!-- Foundation&#45;&gt;MulleObjCHTTPFoundation -->
<g id="edge4" class="edge">
<title>Foundation&#45;&gt;MulleObjCHTTPFoundation</title>
<path fill="none" stroke="black" d="M2059.5,-143.7C2059.5,-135.98 2059.5,-126.71 2059.5,-118.11"/>
<polygon fill="black" stroke="black" points="2063,-118.1 2059.5,-108.1 2056,-118.1 2063,-118.1"/>
</g>
<!-- MulleObjCInetOSFoundation -->
<g id="node9" class="node">
<title>MulleObjCInetOSFoundation</title>
<g id="a_node9"><a xlink:href="https://github.com/MulleFoundation/MulleObjCInetOSFoundation" xlink:title="MulleObjCInetOSFoundation">
<polygon fill="lightgrey" stroke="black" points="2405.5,-108 2183.5,-108 2183.5,-72 2405.5,-72 2405.5,-108"/>
<text text-anchor="middle" x="2294.5" y="-86.3" font-family="Times,serif" font-size="14.00">MulleObjCInetOSFoundation</text>
</a>
</g>
</g>
<!-- Foundation&#45;&gt;MulleObjCInetOSFoundation -->
<g id="edge5" class="edge">
<title>Foundation&#45;&gt;MulleObjCInetOSFoundation</title>
<path fill="none" stroke="black" d="M2108.19,-146.5C2142.62,-136.24 2189.23,-122.36 2227.21,-111.04"/>
<polygon fill="black" stroke="black" points="2228.59,-114.29 2237.17,-108.08 2226.59,-107.58 2228.59,-114.29"/>
</g>
<!-- objc&#45;compat -->
<g id="node10" class="node">
<title>objc&#45;compat</title>
<g id="a_node10"><a xlink:href="https://github.com/MulleFoundation/objc-compat" xlink:title="objc&#45;compat">
<polygon fill="lightgrey" stroke="black" points="2527,-108 2424,-108 2424,-72 2527,-72 2527,-108"/>
<text text-anchor="middle" x="2475.5" y="-86.3" font-family="Times,serif" font-size="14.00">objc&#45;compat</text>
</a>
</g>
</g>
<!-- Foundation&#45;&gt;objc&#45;compat -->
<g id="edge6" class="edge">
<title>Foundation&#45;&gt;objc&#45;compat</title>
<path fill="none" stroke="black" d="M2108.07,-155.68C2174.82,-147.94 2298.74,-132.05 2413.67,-108.03"/>
<polygon fill="black" stroke="black" points="2414.64,-111.4 2423.69,-105.91 2413.19,-104.55 2414.64,-111.4"/>
</g>
<!-- MulleObjCArchiverFoundation -->
<g id="node18" class="node">
<title>MulleObjCArchiverFoundation</title>
<g id="a_node18"><a xlink:href="https://github.com/MulleFoundation/MulleObjCArchiverFoundation" xlink:title="MulleObjCArchiverFoundation">
<polygon fill="lightgrey" stroke="black" points="233,-36 0,-36 0,0 233,0 233,-36"/>
<text text-anchor="middle" x="116.5" y="-14.3" font-family="Times,serif" font-size="14.00">MulleObjCArchiverFoundation</text>
</a>
</g>
</g>
<!-- MulleFoundation&#45;&gt;MulleObjCArchiverFoundation -->
<g id="edge11" class="edge">
<title>MulleFoundation&#45;&gt;MulleObjCArchiverFoundation</title>
<path fill="none" stroke="black" d="M900.87,-85.44C773.39,-78.51 491.19,-61.69 243.52,-36.18"/>
<polygon fill="black" stroke="black" points="243.55,-32.66 233.24,-35.11 242.83,-39.62 243.55,-32.66"/>
</g>
<!-- MulleObjCCalendarFoundation -->
<g id="node19" class="node">
<title>MulleObjCCalendarFoundation</title>
<g id="a_node19"><a xlink:href="https://github.com/MulleFoundation/MulleObjCCalendarFoundation" xlink:title="MulleObjCCalendarFoundation">
<polygon fill="lightgrey" stroke="black" points="488,-36 251,-36 251,0 488,0 488,-36"/>
<text text-anchor="middle" x="369.5" y="-14.3" font-family="Times,serif" font-size="14.00">MulleObjCCalendarFoundation</text>
</a>
</g>
</g>
<!-- MulleFoundation&#45;&gt;MulleObjCCalendarFoundation -->
<g id="edge12" class="edge">
<title>MulleFoundation&#45;&gt;MulleObjCCalendarFoundation</title>
<path fill="none" stroke="black" d="M900.66,-81.71C810.77,-72.09 648.24,-54.37 498.35,-36.09"/>
<polygon fill="black" stroke="black" points="498.39,-32.57 488.04,-34.83 497.54,-39.52 498.39,-32.57"/>
</g>
<!-- MulleObjCDecimalFoundation -->
<g id="node20" class="node">
<title>MulleObjCDecimalFoundation</title>
<g id="a_node20"><a xlink:href="https://github.com/MulleFoundation/MulleObjCDecimalFoundation" xlink:title="MulleObjCDecimalFoundation">
<polygon fill="lightgrey" stroke="black" points="736.5,-36 506.5,-36 506.5,0 736.5,0 736.5,-36"/>
<text text-anchor="middle" x="621.5" y="-14.3" font-family="Times,serif" font-size="14.00">MulleObjCDecimalFoundation</text>
</a>
</g>
</g>
<!-- MulleFoundation&#45;&gt;MulleObjCDecimalFoundation -->
<g id="edge13" class="edge">
<title>MulleFoundation&#45;&gt;MulleObjCDecimalFoundation</title>
<path fill="none" stroke="black" d="M900.75,-75.17C847.94,-64.55 774.42,-49.76 716.08,-38.02"/>
<polygon fill="black" stroke="black" points="716.6,-34.56 706.11,-36.02 715.22,-41.42 716.6,-34.56"/>
</g>
<!-- MulleObjCKVCFoundation -->
<g id="node21" class="node">
<title>MulleObjCKVCFoundation</title>
<g id="a_node21"><a xlink:href="https://github.com/MulleFoundation/MulleObjCKVCFoundation" xlink:title="MulleObjCKVCFoundation">
<polygon fill="lightgrey" stroke="black" points="958,-36 755,-36 755,0 958,0 958,-36"/>
<text text-anchor="middle" x="856.5" y="-14.3" font-family="Times,serif" font-size="14.00">MulleObjCKVCFoundation</text>
</a>
</g>
</g>
<!-- MulleFoundation&#45;&gt;MulleObjCKVCFoundation -->
<g id="edge14" class="edge">
<title>MulleFoundation&#45;&gt;MulleObjCKVCFoundation</title>
<path fill="none" stroke="black" d="M941.86,-71.88C927.08,-62.72 908.71,-51.34 892.8,-41.48"/>
<polygon fill="black" stroke="black" points="894.59,-38.48 884.25,-36.19 890.91,-44.43 894.59,-38.48"/>
</g>
<!-- MulleObjCMathFoundation -->
<g id="node22" class="node">
<title>MulleObjCMathFoundation</title>
<g id="a_node22"><a xlink:href="https://github.com/MulleFoundation/MulleObjCMathFoundation" xlink:title="MulleObjCMathFoundation">
<polygon fill="lightgrey" stroke="black" points="1186.5,-36 976.5,-36 976.5,0 1186.5,0 1186.5,-36"/>
<text text-anchor="middle" x="1081.5" y="-14.3" font-family="Times,serif" font-size="14.00">MulleObjCMathFoundation</text>
</a>
</g>
</g>
<!-- MulleFoundation&#45;&gt;MulleObjCMathFoundation -->
<g id="edge15" class="edge">
<title>MulleFoundation&#45;&gt;MulleObjCMathFoundation</title>
<path fill="none" stroke="black" d="M996.9,-71.88C1011.41,-62.81 1029.42,-51.55 1045.09,-41.76"/>
<polygon fill="black" stroke="black" points="1047.37,-44.46 1054,-36.19 1043.66,-38.52 1047.37,-44.46"/>
</g>
<!-- MulleObjCOSFoundation -->
<g id="node23" class="node">
<title>MulleObjCOSFoundation</title>
<g id="a_node23"><a xlink:href="https://github.com/MulleFoundation/MulleObjCOSFoundation" xlink:title="MulleObjCOSFoundation">
<polygon fill="lightgrey" stroke="black" points="1398.5,-36 1204.5,-36 1204.5,0 1398.5,0 1398.5,-36"/>
<text text-anchor="middle" x="1301.5" y="-14.3" font-family="Times,serif" font-size="14.00">MulleObjCOSFoundation</text>
</a>
</g>
</g>
<!-- MulleFoundation&#45;&gt;MulleObjCOSFoundation -->
<g id="edge16" class="edge">
<title>MulleFoundation&#45;&gt;MulleObjCOSFoundation</title>
<path fill="none" stroke="black" d="M1038.29,-74.5C1088.27,-63.96 1156.39,-49.6 1210.81,-38.12"/>
<polygon fill="black" stroke="black" points="1211.74,-41.5 1220.81,-36.01 1210.3,-34.65 1211.74,-41.5"/>
</g>
<!-- MulleObjCUnicodeFoundation -->
<g id="node24" class="node">
<title>MulleObjCUnicodeFoundation</title>
<g id="a_node24"><a xlink:href="https://github.com/MulleFoundation/MulleObjCUnicodeFoundation" xlink:title="MulleObjCUnicodeFoundation">
<polygon fill="lightgrey" stroke="black" points="1647,-36 1416,-36 1416,0 1647,0 1647,-36"/>
<text text-anchor="middle" x="1531.5" y="-14.3" font-family="Times,serif" font-size="14.00">MulleObjCUnicodeFoundation</text>
</a>
</g>
</g>
<!-- MulleFoundation&#45;&gt;MulleObjCUnicodeFoundation -->
<g id="edge17" class="edge">
<title>MulleFoundation&#45;&gt;MulleObjCUnicodeFoundation</title>
<path fill="none" stroke="black" d="M1038.2,-81.03C1122.37,-71.18 1269.62,-53.72 1405.8,-36.21"/>
<polygon fill="black" stroke="black" points="1406.53,-39.64 1416,-34.9 1405.63,-32.7 1406.53,-39.64"/>
</g>
<!-- MulleObjCExpatFoundation&#45;&gt;craftinfo/expat -->
<g id="edge19" class="edge">
<title>MulleObjCExpatFoundation&#45;&gt;craftinfo/expat</title>
<path fill="none" stroke="black" d="M1802.79,-71.88C1789.83,-62.89 1773.77,-51.76 1759.73,-42.03"/>
<polygon fill="black" stroke="black" points="1761.52,-39.01 1751.3,-36.19 1757.53,-44.76 1761.52,-39.01"/>
</g>
<!-- MulleObjCExpatFoundation&#45;&gt;expat -->
<g id="edge20" class="edge">
<title>MulleObjCExpatFoundation&#45;&gt;expat</title>
<path fill="none" stroke="black" d="M1828.98,-71.7C1829.64,-63.98 1830.44,-54.71 1831.18,-46.11"/>
<polygon fill="black" stroke="black" points="1834.67,-46.37 1832.03,-36.1 1827.69,-45.77 1834.67,-46.37"/>
</g>
<!-- MulleBase64 -->
<g id="node15" class="node">
<title>MulleBase64</title>
<g id="a_node15"><a xlink:href="https://github.com/MulleWeb/MulleBase64" xlink:title="MulleBase64">
<polygon fill="lightgrey" stroke="black" points="1989.5,-36 1879.5,-36 1879.5,0 1989.5,0 1989.5,-36"/>
<text text-anchor="middle" x="1934.5" y="-14.3" font-family="Times,serif" font-size="14.00">MulleBase64</text>
</a>
</g>
</g>
<!-- MulleObjCExpatFoundation&#45;&gt;MulleBase64 -->
<g id="edge21" class="edge">
<title>MulleObjCExpatFoundation&#45;&gt;MulleBase64</title>
<path fill="none" stroke="black" d="M1853.68,-71.88C1867.54,-62.81 1884.74,-51.55 1899.71,-41.76"/>
<polygon fill="black" stroke="black" points="1901.77,-44.59 1908.22,-36.19 1897.94,-38.74 1901.77,-44.59"/>
</g>
<!-- mulle&#45;http -->
<g id="node27" class="node">
<title>mulle&#45;http</title>
<g id="a_node27"><a xlink:href="https://github.com/mulle-c/mulle-http" xlink:title="mulle&#45;http">
<polygon fill="lightgrey" stroke="black" points="2105,-36 2014,-36 2014,0 2105,0 2105,-36"/>
<text text-anchor="middle" x="2059.5" y="-14.3" font-family="Times,serif" font-size="14.00">mulle&#45;http</text>
</a>
</g>
</g>
<!-- MulleObjCHTTPFoundation&#45;&gt;mulle&#45;http -->
<g id="edge22" class="edge">
<title>MulleObjCHTTPFoundation&#45;&gt;mulle&#45;http</title>
<path fill="none" stroke="black" d="M2059.5,-71.7C2059.5,-63.98 2059.5,-54.71 2059.5,-46.11"/>
<polygon fill="black" stroke="black" points="2063,-46.1 2059.5,-36.1 2056,-46.1 2063,-46.1"/>
</g>
<!-- MulleObjCInetFoundation -->
<g id="node28" class="node">
<title>MulleObjCInetFoundation</title>
<g id="a_node28"><a xlink:href="https://github.com/MulleWeb/MulleObjCInetFoundation" xlink:title="MulleObjCInetFoundation">
<polygon fill="lightgrey" stroke="black" points="2395,-36 2194,-36 2194,0 2395,0 2395,-36"/>
<text text-anchor="middle" x="2294.5" y="-14.3" font-family="Times,serif" font-size="14.00">MulleObjCInetFoundation</text>
</a>
</g>
</g>
<!-- MulleObjCInetOSFoundation&#45;&gt;MulleObjCInetFoundation -->
<g id="edge23" class="edge">
<title>MulleObjCInetOSFoundation&#45;&gt;MulleObjCInetFoundation</title>
<path fill="none" stroke="black" d="M2294.5,-71.7C2294.5,-63.98 2294.5,-54.71 2294.5,-46.11"/>
<polygon fill="black" stroke="black" points="2298,-46.1 2294.5,-36.1 2291,-46.1 2298,-46.1"/>
</g>
<!-- mulle&#45;atexit -->
<g id="node12" class="node">
<title>mulle&#45;atexit</title>
<g id="a_node12"><a xlink:href="https://github.com/mulle-core/mulle-atexit" xlink:title="mulle&#45;atexit">
<polygon fill="lightgrey" stroke="black" points="2647.5,-108 2545.5,-108 2545.5,-72 2647.5,-72 2647.5,-108"/>
<text text-anchor="middle" x="2596.5" y="-86.3" font-family="Times,serif" font-size="14.00">mulle&#45;atexit</text>
</a>
</g>
</g>
<!-- Foundation&#45;startup&#45;&gt;mulle&#45;atexit -->
<g id="edge7" class="edge">
<title>Foundation&#45;startup&#45;&gt;mulle&#45;atexit</title>
<path fill="none" stroke="black" d="M2628.12,-143.7C2623.24,-135.56 2617.31,-125.69 2611.92,-116.7"/>
<polygon fill="black" stroke="black" points="2614.91,-114.88 2606.76,-108.1 2608.91,-118.48 2614.91,-114.88"/>
</g>
<!-- mulle&#45;atinit -->
<g id="node13" class="node">
<title>mulle&#45;atinit</title>
<g id="a_node13"><a xlink:href="https://github.com/mulle-core/mulle-atinit" xlink:title="mulle&#45;atinit">
<polygon fill="lightgrey" stroke="black" points="2765,-108 2666,-108 2666,-72 2765,-72 2765,-108"/>
<text text-anchor="middle" x="2715.5" y="-86.3" font-family="Times,serif" font-size="14.00">mulle&#45;atinit</text>
</a>
</g>
</g>
<!-- Foundation&#45;startup&#45;&gt;mulle&#45;atinit -->
<g id="edge8" class="edge">
<title>Foundation&#45;startup&#45;&gt;mulle&#45;atinit</title>
<path fill="none" stroke="black" d="M2657.53,-143.7C2667.04,-135.05 2678.71,-124.45 2689.07,-115.03"/>
<polygon fill="black" stroke="black" points="2691.64,-117.42 2696.69,-108.1 2686.93,-112.24 2691.64,-117.42"/>
</g>
<!-- mulle&#45;dlfcn -->
<g id="node14" class="node">
<title>mulle&#45;dlfcn</title>
<g id="a_node14"><a xlink:href="https://github.com/mulle-core/mulle-dlfcn" xlink:title="mulle&#45;dlfcn">
<polygon fill="lightgrey" stroke="black" points="2763.5,-36 2667.5,-36 2667.5,0 2763.5,0 2763.5,-36"/>
<text text-anchor="middle" x="2715.5" y="-14.3" font-family="Times,serif" font-size="14.00">mulle&#45;dlfcn</text>
</a>
</g>
</g>
<!-- mulle&#45;atinit&#45;&gt;mulle&#45;dlfcn -->
<g id="edge9" class="edge">
<title>mulle&#45;atinit&#45;&gt;mulle&#45;dlfcn</title>
<path fill="none" stroke="black" d="M2715.5,-71.7C2715.5,-63.98 2715.5,-54.71 2715.5,-46.11"/>
<polygon fill="black" stroke="black" points="2719,-46.1 2715.5,-36.1 2712,-46.1 2719,-46.1"/>
</g>
<!-- MulleCivetWeb -->
<g id="node16" class="node">
<title>MulleCivetWeb</title>
<g id="a_node16"><a xlink:href="https://github.com/MulleWeb/MulleCivetWeb" xlink:title="MulleCivetWeb">
<polygon fill="lightgrey" stroke="black" points="3078,-108 2953,-108 2953,-72 3078,-72 3078,-108"/>
<text text-anchor="middle" x="3015.5" y="-86.3" font-family="Times,serif" font-size="14.00">MulleCivetWeb</text>
</a>
</g>
</g>
<!-- src/civetweb -->
<g id="node17" class="node">
<title>src/civetweb</title>
<g id="a_node17"><a xlink:href="https://github.com/mulle-nat/civetweb" xlink:title="src/civetweb">
<polygon fill="lightgrey" stroke="black" points="3069,-36 2962,-36 2962,0 3069,0 3069,-36"/>
<text text-anchor="middle" x="3015.5" y="-14.3" font-family="Times,serif" font-size="14.00">src/civetweb</text>
</a>
</g>
</g>
<!-- MulleCivetWeb&#45;&gt;src/civetweb -->
<g id="edge10" class="edge">
<title>MulleCivetWeb&#45;&gt;src/civetweb</title>
<path fill="none" stroke="black" d="M3015.5,-71.7C3015.5,-63.98 3015.5,-54.71 3015.5,-46.11"/>
<polygon fill="black" stroke="black" points="3019,-46.1 3015.5,-36.1 3012,-46.1 3019,-46.1"/>
</g>
<!-- mulle&#45;slugify -->
<g id="node26" class="node">
<title>mulle&#45;slugify</title>
<g id="a_node26"><a xlink:href="https://github.com/mulle-c/mulle-slugify" xlink:title="mulle&#45;slugify">
<polygon fill="lightgrey" stroke="black" points="2892,-108 2783,-108 2783,-72 2892,-72 2892,-108"/>
<text text-anchor="middle" x="2837.5" y="-86.3" font-family="Times,serif" font-size="14.00">mulle&#45;slugify</text>
</a>
</g>
</g>
<!-- MulleHoedown&#45;&gt;mulle&#45;slugify -->
<g id="edge18" class="edge">
<title>MulleHoedown&#45;&gt;mulle&#45;slugify</title>
<path fill="none" stroke="black" d="M2805.88,-143.7C2810.76,-135.56 2816.69,-125.69 2822.08,-116.7"/>
<polygon fill="black" stroke="black" points="2825.09,-118.48 2827.24,-108.1 2819.09,-114.88 2825.09,-118.48"/>
</g>
<!-- MulleObjCJSMNFoundation -->
<g id="node29" class="node">
<title>MulleObjCJSMNFoundation</title>
<g id="a_node29"><a xlink:href="https://github.com/MulleWeb/MulleObjCJSMNFoundation" xlink:title="MulleObjCJSMNFoundation">
<polygon fill="lightgrey" stroke="black" points="3310.5,-108 3096.5,-108 3096.5,-72 3310.5,-72 3310.5,-108"/>
<text text-anchor="middle" x="3203.5" y="-86.3" font-family="Times,serif" font-size="14.00">MulleObjCJSMNFoundation</text>
</a>
</g>
</g>
<!-- src/jsmn.h -->
<g id="node30" class="node">
<title>src/jsmn.h</title>
<polygon fill="lightgrey" stroke="black" points="3249,-36 3158,-36 3158,0 3249,0 3249,-36"/>
<text text-anchor="middle" x="3203.5" y="-14.3" font-family="Times,serif" font-size="14.00">src/jsmn.h</text>
</g>
<!-- MulleObjCJSMNFoundation&#45;&gt;src/jsmn.h -->
<g id="edge24" class="edge">
<title>MulleObjCJSMNFoundation&#45;&gt;src/jsmn.h</title>
<path fill="none" stroke="black" d="M3203.5,-71.7C3203.5,-63.98 3203.5,-54.71 3203.5,-46.11"/>
<polygon fill="black" stroke="black" points="3207,-46.1 3203.5,-36.1 3200,-46.1 3207,-46.1"/>
</g>
<!-- MulleWebServer&#45;&gt;MulleCivetWeb -->
<g id="edge30" class="edge">
<title>MulleWebServer&#45;&gt;MulleCivetWeb</title>
<path fill="none" stroke="black" d="M3047.12,-143.7C3042.24,-135.56 3036.31,-125.69 3030.92,-116.7"/>
<polygon fill="black" stroke="black" points="3033.91,-114.88 3025.76,-108.1 3027.91,-118.48 3033.91,-114.88"/>
</g>
<!-- MulleWebServer&#45;&gt;MulleObjCJSMNFoundation -->
<g id="edge31" class="edge">
<title>MulleWebServer&#45;&gt;MulleObjCJSMNFoundation</title>
<path fill="none" stroke="black" d="M3093.22,-143.88C3113,-134.39 3137.77,-122.51 3158.83,-112.42"/>
<polygon fill="black" stroke="black" points="3160.4,-115.55 3167.9,-108.07 3157.37,-109.24 3160.4,-115.55"/>
</g>
</g>
</svg>
